<svg width="1444" height="184" viewBox="0 0 1444 184" fill="none" xmlns="http://www.w3.org/2000/svg">
<path d="M0 92.495V91.9744C0 41.9675 38.9664 1 92.2292 1C124.001 1 143.008 9.52307 161.352 25.1236L136.973 54.593C123.397 43.2647 111.322 36.738 90.9861 36.738C62.8254 36.7401 40.4655 61.6188 40.4655 91.6303V92.1207C40.4655 124.303 62.5931 147.938 93.7305 147.938C106.707 148.292 119.465 144.541 130.185 137.219V112.084H91.2764V78.6585H167.62V155.074C146.783 173.152 120.102 183.067 92.5174 182.981C37.6931 182.981 0 144.528 0 92.495Z" fill="#020714"/>
<path d="M283.62 92.495V91.9744C283.62 41.9675 322.584 1 375.849 1C407.625 1 426.632 9.52307 444.974 25.1236L420.595 54.5951C407.019 43.2669 394.942 36.7401 374.608 36.7401C346.445 36.7401 324.087 61.6145 324.087 91.6303V92.1207C324.087 124.303 346.187 147.938 377.352 147.938C390.314 148.334 403.07 144.633 413.809 137.363V112.084H374.838V78.6585H451.239V155.074C430.4 173.146 403.723 183.06 376.141 182.981C321.308 182.981 283.62 144.528 283.62 92.495Z" fill="#020714"/>
<path d="M491.239 92.495V91.9744C491.239 41.9675 530.206 1 583.469 1C615.245 1 634.249 9.52307 652.589 25.1236L628.214 54.5951C614.638 43.2669 602.561 36.7401 582.228 36.7401C554.065 36.7401 531.709 61.6145 531.709 91.6303V92.1207C531.709 124.303 553.804 147.938 584.974 147.938C597.949 148.286 610.704 144.535 621.426 137.219V112.084H582.46V78.6585H658.859V155.074C638.02 173.147 611.341 183.06 583.759 182.981C528.935 182.981 491.239 144.528 491.239 92.495Z" fill="#020714"/>
<path d="M698.859 4H831.528V38.4365H737.305V74.1164H820.236V108.555H737.305V145.511H832.802V179.945H698.859V4Z" fill="#020714"/>
<path d="M872.801 4H941.412C996.688 4 1034.88 41.9623 1034.88 91.4809V91.9692C1034.88 141.488 996.696 179.941 941.412 179.941H872.801V4ZM911.477 38.9291V145.014H941.403C973.175 145.014 994.438 123.637 994.438 92.4898V91.9692C994.438 60.8004 973.061 38.9291 941.403 38.9291H911.477Z" fill="#020714"/>
<path d="M1256.65 4H1292.36L1367.74 181.212H1327.3L1311.25 141.892H1236.87L1220.78 181.354H1181.32L1256.65 4ZM1297.38 107.572L1273.98 50.5155L1250.58 107.572H1297.38Z" fill="#020714"/>
<path d="M225.62 1C230.394 1 234.972 2.80755 238.348 6.02501C241.723 9.24246 243.62 13.6063 243.62 18.1564V166.844C243.62 171.394 241.723 175.758 238.348 178.975C234.972 182.192 230.394 184 225.62 184C220.846 184 216.267 182.192 212.892 178.975C209.516 175.758 207.62 171.394 207.62 166.844V18.1564C207.62 13.6063 209.516 9.24246 212.892 6.02501C216.267 2.80755 220.846 1 225.62 1Z" fill="#36DD93"/>
<path d="M1108.1 117C1114.67 117.001 1121.1 118.95 1126.56 122.601C1132.02 126.253 1136.28 131.442 1138.79 137.513C1141.3 143.584 1141.96 150.264 1140.68 156.708C1139.4 163.153 1136.23 169.072 1131.59 173.718C1126.94 178.364 1121.02 181.527 1114.58 182.809C1108.13 184.09 1101.46 183.431 1095.39 180.916C1089.32 178.401 1084.13 174.143 1080.48 168.679C1076.83 163.215 1074.88 156.792 1074.88 150.221C1074.88 145.858 1075.74 141.537 1077.41 137.506C1079.08 133.475 1081.53 129.812 1084.61 126.727C1087.7 123.642 1091.36 121.195 1095.39 119.526C1099.42 117.857 1103.74 116.999 1108.1 117Z" fill="#020714"/>
<path d="M1425.74 0C1430.51 0 1435.09 1.81743 1438.47 5.05247C1441.84 8.28751 1443.74 12.6752 1443.74 17.2502V92V166.75C1443.74 171.325 1441.84 175.713 1438.47 178.948C1435.09 182.183 1430.51 184 1425.74 184C1420.97 184 1416.39 182.183 1413.01 178.948C1409.64 175.713 1407.74 171.325 1407.74 166.75V17.2502C1407.74 12.6752 1409.64 8.28751 1413.01 5.05247C1416.39 1.81743 1420.97 0 1425.74 0Z" fill="#36DD93"/>
</svg>
